<svg width="588" height="588" xmlns="http://www.w3.org/2000/svg" fill="#D9E7CA" version="1.1" xml:space="preserve" stroke="#D9E7CA">
 <g>
  <title>Layer 1</title>
  <g id="SVGRepo_bgCarrier" stroke-width="0" transform="translate(53.878 53.878) scale(0.78 0.78)">
   <rect x="13.81487" y="13.81487" width="587.76" height="587.76" fill="#294c18" strokewidth="0" id="svg_1"/>
  </g>
  <g id="SVGRepo_tracerCarrier" stroke-linecap="round" stroke-linejoin="round" stroke="#CCCCCC" stroke-width="1.9592"/>
  <g stroke-width="0" id="svg_2">
   <g id="svg_3">
    <path fill="#294c18" d="m487.18,49.98l-386.6,0c-28.5,0 -51.6,23.2 -51.6,51.6l0,386.6c0,28.5 23.2,51.6 51.6,51.6l386.6,0c28.5,0 51.6,-23.2 51.6,-51.6l0,-386.6c0,-28.4 -23.2,-51.6 -51.6,-51.6zm27.1,438.2c0,14.9 -12.2,27.1 -27.1,27.1l-386.6,0c-14.9,0 -27.1,-12.2 -27.1,-27.1l0,-386.6c0,-14.9 12.2,-27.1 27.1,-27.1l386.6,0c14.9,0 27.1,12.2 27.1,27.1l0,386.6z" id="svg_4"/>
    <path d="m305.38,162.98c-0.1,-0.2 -0.2,-0.3 -0.2,-0.5c-0.2,-0.4 -0.4,-0.8 -0.6,-1.2c-0.2,-0.3 -0.4,-0.7 -0.6,-1s-0.5,-0.6 -0.7,-0.9c-0.3,-0.3 -0.5,-0.6 -0.8,-0.9s-0.5,-0.5 -0.8,-0.7c-0.3,-0.3 -0.7,-0.5 -1,-0.8c-0.3,-0.2 -0.6,-0.4 -0.9,-0.5c-0.4,-0.2 -0.8,-0.4 -1.3,-0.6c-0.2,-0.1 -0.3,-0.2 -0.5,-0.2c-0.2,-0.1 -0.3,-0.1 -0.5,-0.1c-0.5,-0.1 -0.9,-0.3 -1.4,-0.3c-0.3,-0.1 -0.7,-0.1 -1,-0.2c-0.4,0 -0.8,-0.1 -1.3,-0.1c-0.4,0 -0.8,0 -1.2,0.1c-0.4,0 -0.7,0.1 -1.1,0.2c-0.5,0.1 -0.9,0.2 -1.3,0.3c-0.2,0.1 -0.3,0.1 -0.5,0.1c-0.2,0.1 -0.3,0.2 -0.5,0.2c-0.4,0.2 -0.8,0.4 -1.2,0.6c-0.3,0.2 -0.6,0.4 -0.9,0.5c-0.4,0.2 -0.7,0.5 -1,0.8c-0.3,0.2 -0.6,0.5 -0.8,0.7c-0.3,0.3 -0.6,0.6 -0.8,0.9c-0.3,0.3 -0.5,0.6 -0.7,0.9s-0.4,0.6 -0.6,1c-0.2,0.4 -0.4,0.8 -0.6,1.2c-0.1,0.2 -0.2,0.3 -0.2,0.5l-91.5,255.6c-2.3,6.4 1,13.4 7.4,15.7c1.4,0.5 2.8,0.7 4.1,0.7c5,0 9.7,-3.1 11.5,-8.1l26.2,-73.3l106.3,0c0.3,0 0.6,-0.1 1,-0.1l26.2,73.4c1.8,5 6.5,8.1 11.5,8.1c1.4,0 2.8,-0.2 4.1,-0.7c6.4,-2.3 9.7,-9.3 7.4,-15.7l-91.2,-255.6zm-56.4,166l44.9,-125.5l44.9,125.5l-89.8,0z" id="svg_5"/>
   </g>
  </g>
  <g stroke="null">
   <g stroke="null">
    <title stroke="null">Layer 1</title>
    <g stroke="null" transform="translate(53.878 53.878) scale(0.78 0.78)" stroke-width="0" id="svg_11">
     <rect stroke="null" id="svg_12" strokewidth="0" fill="#294c18" height="640.55998" width="630.96003" y="-16.34132" x="-14.11846"/>
    </g>
    <g stroke="#CCCCCC" stroke-width="1.9592" stroke-linejoin="round" stroke-linecap="round" id="svg_10"/>
    <g stroke="null" id="svg_6" stroke-width="0">
     <g stroke="null" id="svg_7">
      <path stroke="null" id="svg_9" d="m500.40746,29.98l-415.01488,0c-30.59473,0 -55.39257,25.28412 -55.39257,56.23536l0,421.32926c0,31.06023 24.90519,56.23536 55.39257,56.23536l415.01488,0c30.59473,0 55.39257,-25.28412 55.39257,-56.23536l0,-421.32926c0,-30.95124 -24.90519,-56.23536 -55.39257,-56.23536zm29.09183,477.56462c0,16.2385 -13.09669,29.53446 -29.09183,29.53446l-415.01488,0c-15.99514,0 -29.09183,-13.29596 -29.09183,-29.53446l0,-421.32926c0,-16.2385 13.09669,-29.53446 29.09183,-29.53446l415.01488,0c15.99514,0 29.09183,13.29596 29.09183,29.53446l0,421.32926z" fill="#294c18"/>
      <path stroke="null" id="svg_8" d="m305.24526,153.13108c-0.10735,-0.21797 -0.2147,-0.32695 -0.2147,-0.54492c-0.2147,-0.43593 -0.4294,-0.87187 -0.6441,-1.3078c-0.2147,-0.32695 -0.4294,-0.76288 -0.6441,-1.08983s-0.53675,-0.6539 -0.75145,-0.98085c-0.32205,-0.32695 -0.53675,-0.6539 -0.8588,-0.98085s-0.53675,-0.54492 -0.8588,-0.76288c-0.32205,-0.32695 -0.75145,-0.54492 -1.0735,-0.87187c-0.32205,-0.21797 -0.6441,-0.43593 -0.96615,-0.54492c-0.4294,-0.21797 -0.8588,-0.43593 -1.39555,-0.6539c-0.2147,-0.10898 -0.32205,-0.21797 -0.53675,-0.21797c-0.2147,-0.10898 -0.32205,-0.10898 -0.53675,-0.10898c-0.53675,-0.10898 -0.96615,-0.32695 -1.5029,-0.32695c-0.32205,-0.10898 -0.75145,-0.10898 -1.0735,-0.21797c-0.4294,0 -0.8588,-0.10898 -1.39555,-0.10898c-0.4294,0 -0.8588,0 -1.2882,0.10898c-0.4294,0 -0.75145,0.10898 -1.18085,0.21797c-0.53675,0.10898 -0.96615,0.21797 -1.39555,0.32695c-0.2147,0.10898 -0.32205,0.10898 -0.53675,0.10898c-0.2147,0.10898 -0.32205,0.21797 -0.53675,0.21797c-0.4294,0.21797 -0.8588,0.43593 -1.2882,0.6539c-0.32205,0.21797 -0.6441,0.43593 -0.96615,0.54492c-0.4294,0.21797 -0.75145,0.54492 -1.0735,0.87187c-0.32205,0.21797 -0.6441,0.54492 -0.8588,0.76288c-0.32205,0.32695 -0.6441,0.6539 -0.8588,0.98085c-0.32205,0.32695 -0.53675,0.6539 -0.75145,0.98085s-0.4294,0.6539 -0.6441,1.08983c-0.2147,0.43593 -0.4294,0.87187 -0.6441,1.3078c-0.10735,0.21797 -0.2147,0.32695 -0.2147,0.54492l-98.2252,278.5612c-2.46905,6.97493 1.0735,14.60376 7.9439,17.11037c1.5029,0.54492 3.0058,0.76288 4.40135,0.76288c5.3675,0 10.41294,-3.37848 12.34524,-8.82764l28.12569,-79.88473l114.11299,0c0.32205,0 0.6441,-0.10898 1.0735,-0.10898l28.12569,79.99371c1.9323,5.44916 6.97775,8.82764 12.34524,8.82764c1.5029,0 3.0058,-0.21797 4.40135,-0.76288c6.8704,-2.50661 10.41294,-10.13544 7.9439,-17.11037l-97.90315,-278.5612zm-60.54537,180.9122l48.20012,-136.77398l48.20012,136.77398l-96.40025,0z"/>
     </g>
    </g>
   </g>
  </g>
 </g>

</svg>